<svg xmlns="http://www.w3.org/2000/svg" xmlns:xlink="http://www.w3.org/1999/xlink" version="1.1" enable-background="new 0 0 100 100" xml:space="preserve" width="100" height="25" style=""><rect id="backgroundrect" width="100%" height="100%" x="0" y="0" fill="none" stroke="none" style="" class=""/><g class="currentLayer" style=""><title>Layer 1</title><g id="svg_1" class=""><path d="M90.03124696016312,21.499217987060547 c-4.5,0 -6.599999904632568,-5.300000190734863 -8.600000381469727,-10.399999618530273 c-1.7999999523162842,-4.5 -3.5999999046325684,-9.100000381469727 -6.800000190734863,-9.100000381469727 s-5,4.599999904632568 -6.800000190734863,9.100000381469727 c-2,5.099999904632568 -4.099999904632568,10.399999618530273 -8.600000381469727,10.399999618530273 s-6.599999904632568,-5.300000190734863 -8.600000381469727,-10.399999618530273 c-1.7999999523162842,-4.5 -3.5999999046325684,-9.100000381469727 -6.800000190734863,-9.100000381469727 s-5,4.599999904632568 -6.800000190734863,9.100000381469727 c-2,5.099999904632568 -4.099999904632568,10.399999618530273 -8.600000381469727,10.399999618530273 c-4.5,0 -6.599999904632568,-5.300000190734863 -8.600000381469727,-10.399999618530273 c-1.7999999523162842,-4.5 -3.5999999046325684,-9.100000381469727 -6.800000190734863,-9.100000381469727 c-0.6000000238418579,0 -1,-0.4000000059604645 -1,-1 s0.4000000059604645,-1 1,-1 c4.5,0 6.599999904632568,5.300000190734863 8.600000381469727,10.399999618530273 c1.7999999523162842,4.5 3.5999999046325684,9.100000381469727 6.800000190734863,9.100000381469727 c3.200000047683716,0 5,-4.599999904632568 6.800000190734863,-9.100000381469727 c2,-5.099999904632568 4.099999904632568,-10.399999618530273 8.600000381469727,-10.399999618530273 s6.599999904632568,5.300000190734863 8.600000381469727,10.399999618530273 c1.7999999523162842,4.5 3.5999999046325684,9.100000381469727 6.800000190734863,9.100000381469727 c3.200000047683716,0 5,-4.599999904632568 6.800000190734863,-9.100000381469727 c2,-5.099999904632568 4.099999904632568,-10.399999618530273 8.600000381469727,-10.399999618530273 s6.599999904632568,5.300000190734863 8.600000381469727,10.399999618530273 c1.7999999523162842,4.5 3.5999999046325684,9.100000381469727 6.800000190734863,9.100000381469727 c0.6000000238418579,0 1,0.4000000059604645 1,1 S90.63125306367874,21.499217987060547 90.03124696016312,21.499217987060547 z" id="svg_2"/></g><text x="0.831250011920929" y="75.69921875" fill="#000000" font-size="5px" font-weight="bold" font-family="'Helvetica Neue', Helvetica, Arial-Unicode, Arial, Sans-serif" id="svg_3" class="">Created by Aurélien Lemesre</text><text x="0.831250011920929" y="80.69921875" fill="#000000" font-size="5px" font-weight="bold" font-family="'Helvetica Neue', Helvetica, Arial-Unicode, Arial, Sans-serif" id="svg_4" class="">from the Noun Project</text></g></svg>