<svg xmlns="http://www.w3.org/2000/svg" xmlns:xlink="http://www.w3.org/1999/xlink" version="1.1" enable-background="new 0 0 100 100" xml:space="preserve" width="100" height="25"><rect id="backgroundrect" width="100%" height="100%" x="0" y="0" fill="none" stroke="none" style="" class=""/><g class="currentLayer" style=""><title>Layer 1</title><g id="svg_1"><path fill="#000000" stroke="#000000" stroke-miterlimit="10" d="M32.3,47.2" id="svg_2"/></g><g id="svg_3" class=""><polygon points="94.248122215271,24.909774780273438 78.248122215271,24.909774780273438 78.248122215271,4.909775733947754 65.248122215271,4.909775733947754 65.248122215271,24.909774780273438 48.248122215270996,24.909774780273438 48.248122215270996,4.909775733947754 35.248122215270996,4.909775733947754 35.248122215270996,24.909774780273438 18.248120307922363,24.909774780273438 18.248120307922363,4.909775733947754 4.248120307922363,4.909775733947754 4.248120307922363,2.909775733947754 20.248120307922363,2.909775733947754 20.248120307922363,22.909774780273438 33.248122215270996,22.909774780273438 33.248122215270996,2.909775733947754 50.248122215270996,2.909775733947754 50.248122215270996,22.909774780273438 63.248122215270996,22.909774780273438 63.248122215270996,2.909775733947754 80.248122215271,2.909775733947754 80.248122215271,22.909774780273438 94.248122215271,22.909774780273438 " id="svg_4"/></g><text x="0" y="115" fill="#000000" font-size="5px" font-weight="bold" font-family="'Helvetica Neue', Helvetica, Arial-Unicode, Arial, Sans-serif" id="svg_5">Created by Aurélien Lemesre</text><text x="0" y="120" fill="#000000" font-size="5px" font-weight="bold" font-family="'Helvetica Neue', Helvetica, Arial-Unicode, Arial, Sans-serif" id="svg_6">from the Noun Project</text></g></svg>